<svg width="39" height="39" xmlns="http://www.w3.org/2000/svg"><g fill="#89D2D6"><path d="M37.91 11.176a13.892 13.892 0 00-.884-4.612A9.738 9.738 0 0031.464 1a13.927 13.927 0 00-4.611-.881C24.818.022 24.172 0 19.011 0s-5.809.022-7.835.111C9.6.141 8.041.441 6.565.995a9.275 9.275 0 00-3.372 2.2 9.359 9.359 0 00-2.191 3.362 13.927 13.927 0 00-.884 4.611C.022 13.2.002 13.85.002 19.011s.022 5.807.111 7.834c.03 1.576.33 3.136.884 4.612a9.737 9.737 0 005.562 5.562 13.93 13.93 0 004.612.884c2.027.089 2.673.111 7.834.111s5.807-.022 7.835-.111c1.576-.03 3.135-.33 4.611-.884a9.724 9.724 0 005.562-5.562c.553-1.476.852-3.036.884-4.612.089-2.027.111-2.673.111-7.834s-.006-5.811-.098-7.835zM34.487 26.7a10.418 10.418 0 01-.654 3.527 6.306 6.306 0 01-3.609 3.609c-1.13.42-2.323.64-3.527.653-2.005.089-2.606.111-7.678.111s-5.681-.022-7.679-.111a10.416 10.416 0 01-3.527-.653 5.85 5.85 0 01-2.183-1.418 5.911 5.911 0 01-1.418-2.183 10.456 10.456 0 01-.655-3.535c-.089-2-.111-2.607-.111-7.679s.022-5.681.111-7.678c.012-1.203.233-2.395.653-3.523a5.778 5.778 0 011.427-2.184A5.9 5.9 0 017.82 4.218c1.13-.42 2.322-.64 3.527-.654 2-.089 2.607-.111 7.678-.111s5.681.022 7.679.111c1.205.012 2.398.234 3.527.654a5.845 5.845 0 012.183 1.418 5.909 5.909 0 011.419 2.184c.42 1.13.64 2.322.654 3.527.089 2.005.111 2.606.111 7.678s-.022 5.667-.111 7.675z"/><path d="M19.01 9.245a9.765 9.765 0 100 19.53 9.765 9.765 0 000-19.53zm0 16.1a6.334 6.334 0 110-12.668 6.334 6.334 0 010 12.668zM31.442 8.86a2.28 2.28 0 11-4.56 0 2.28 2.28 0 014.56 0z"/></g></svg>