<?xml version="1.0" encoding="UTF-8"?>
<svg width="55px" height="36px" viewBox="0 0 55 36" version="1.1" xmlns="http://www.w3.org/2000/svg" xmlns:xlink="http://www.w3.org/1999/xlink">
    <title>email</title>
    <g id="Page-1" stroke="none" stroke-width="1" fill="none" fill-rule="evenodd">
        <g id="email" fill="#89D2D6" fill-rule="nonzero">
            <path d="M2.441,0 C1.1009648,0.0193381827 0.0193381827,1.1009648 0,2.441 L0,32.953 C0.0193381827,34.2930352 1.1009648,35.3746618 2.441,35.394 L52.481,35.394 C53.8210352,35.3746618 54.9026618,34.2930352 54.922,32.953 L54.922,2.441 C54.9026618,1.1009648 53.8210352,0.0193381827 52.481,0 L2.441,0 Z M6.618,3.661 L48.3,3.661 L27.461,21.969 L6.618,3.661 Z M3.661,5.95 L16.915,17.563 L3.661,29.406 L3.661,5.95 Z M51.261,5.95 L51.261,29.406 L38.007,17.563 L51.261,5.95 Z M19.68,20 L26.259,25.778 C26.9474747,26.375395 27.9705253,26.375395 28.659,25.778 L35.242,20 L48.381,31.733 L6.541,31.733 L19.68,20 Z" id="Path_262"></path>
        </g>
    </g>
</svg>