<?xml version="1.0" encoding="UTF-8"?>
<svg width="39px" height="39px" viewBox="0 0 39 39" version="1.1" xmlns="http://www.w3.org/2000/svg" xmlns:xlink="http://www.w3.org/1999/xlink">
    <title>instagram</title>
    <g id="Page-1" stroke="none" stroke-width="1" fill="none" fill-rule="evenodd">
        <g id="instagram" fill="#89D2D6" fill-rule="nonzero">
            <path d="M37.91,11.176 C37.8791858,9.59964104 37.5802491,8.04003017 37.026,6.564 C36.037042,4.00962722 34.0180171,1.98987632 31.464,1 C29.9879223,0.447542506 28.4287778,0.149644809 26.853,0.119 C24.818,0.022 24.172,0 19.011,0 C13.85,0 13.202,0.022 11.176,0.111 C9.59997991,0.141946842 8.04071991,0.440881095 6.565,0.995 C5.2934715,1.47258386 4.14235354,2.22360981 3.193,3.195 C2.22817338,4.14406822 1.48065897,5.29109855 1.002,6.557 C0.44851843,8.03289919 0.14960529,9.59204906 0.118,11.168 C0.022,13.2 0.002,13.85 0.002,19.011 C0.002,24.172 0.024,24.818 0.113,26.845 C0.143794822,28.421361 0.442732135,29.9809751 0.997,31.457 C1.98631915,34.0106838 4.00531623,36.0296809 6.559,37.019 C8.03522532,37.5725552 9.59471628,37.8714689 11.171,37.903 C13.198,37.992 13.844,38.014 19.005,38.014 C24.166,38.014 24.812,37.992 26.84,37.903 C28.4160303,37.8721503 29.9753065,37.5732129 31.451,37.019 C34.0055857,36.0310655 36.0250655,34.0115857 37.013,31.457 C37.5664057,29.9807327 37.8653145,28.4212675 37.897,26.845 C37.986,24.818 38.008,24.172 38.008,19.011 C38.008,13.85 38.002,13.2 37.91,11.176 Z M34.487,26.7 C34.4745647,27.9046369 34.2532852,29.0979894 33.833,30.227 C33.1923444,31.8848364 31.8818364,33.1953444 30.224,33.836 C29.0947083,34.2551457 27.901498,34.4760604 26.697,34.489 C24.692,34.578 24.091,34.6 19.019,34.6 C13.947,34.6 13.338,34.578 11.34,34.489 C10.1354181,34.4769252 8.94206046,34.2559832 7.813,33.836 C6.98807086,33.5332843 6.24193397,33.0486201 5.63,32.418 C5.00098841,31.8047448 4.51657668,31.0589967 4.212,30.235 C3.79120693,29.1033217 3.56959847,27.9073127 3.557,26.7 C3.468,24.7 3.446,24.093 3.446,19.021 C3.446,13.949 3.468,13.34 3.557,11.343 C3.56945587,10.1397559 3.79039315,8.94777726 4.21,7.82 C4.51294476,6.99273003 5.00105217,6.24568967 5.637,5.636 C6.25001919,5.00670081 6.99583648,4.52224414 7.82,4.218 C8.94924736,3.79857134 10.1424492,3.57731985 11.347,3.564 C13.347,3.475 13.954,3.453 19.025,3.453 C24.096,3.453 24.706,3.475 26.704,3.564 C27.9086369,3.57643532 29.1019894,3.79771475 30.231,4.218 C31.0560064,4.52056127 31.8021757,5.0052466 32.414,5.636 C33.0435494,6.24939988 33.5283237,6.99552188 33.833,7.82 C34.2524674,8.94923665 34.4737202,10.1424453 34.487,11.347 C34.576,13.352 34.598,13.953 34.598,19.025 C34.598,24.097 34.576,24.692 34.487,26.7 Z" id="Path_5"></path>
            <path d="M19.01,9.245 C15.0604262,9.245 11.4997528,11.6241659 9.98831637,15.2730963 C8.4768799,18.9220267 9.31233185,23.1221273 12.1051023,25.9148977 C14.8978727,28.7076681 19.0979733,29.5431201 22.7469037,28.0316836 C26.3958341,26.5202472 28.775,22.9595738 28.775,19.01 C28.7733441,13.6176255 24.4023745,9.24665588 19.01,9.245 Z M19.01,25.345 C15.5118284,25.345 12.676,22.5091716 12.676,19.011 C12.676,15.5128284 15.5118284,12.677 19.01,12.677 C22.5081716,12.677 25.344,15.5128284 25.344,19.011 C25.3428961,22.5087143 22.5077143,25.3438961 19.01,25.345 Z" id="Path_6"></path>
            <path d="M31.442,8.86 C31.442,10.1192092 30.4212092,11.14 29.162,11.14 C27.9027908,11.14 26.882,10.1192092 26.882,8.86 C26.882,7.60079077 27.9027908,6.58 29.162,6.58 C29.7666936,6.58 30.3466205,6.8202136 30.7742035,7.24779654 C31.2017864,7.67537948 31.442,8.2553064 31.442,8.86 Z" id="Path_7"></path>
        </g>
    </g>
</svg>